<svg width="74" height="67" viewBox="0 0 74 67" fill="none" xmlns="http://www.w3.org/2000/svg">
<path fill-rule="evenodd" clip-rule="evenodd" d="M11.119 16.0396C9.6888 18.1155 9.14631 20.5985 9.09369 22.2272L7.09473 22.1626C7.15691 20.2382 7.77963 17.3614 9.47201 14.9049C11.1947 12.4045 14.0159 10.3648 18.3382 10.2325L18.3994 12.2316C14.7776 12.3424 12.5189 14.0077 11.119 16.0396Z" fill="white"/>
<path fill-rule="evenodd" clip-rule="evenodd" d="M32.0005 20.4824L41.1573 19.9473L41.632 28.0714L49.4807 27.6128L49.9755 36.0811L42.1268 36.5397L42.6015 44.6638L33.4447 45.1988L32.97 37.0747L24.8459 37.5494L24.3511 29.0811L32.4752 28.6064L32.0005 20.4824ZM34.1138 22.3623L34.5885 30.4864L26.4644 30.961L26.7259 35.4362L34.8499 34.9615L35.3246 43.0856L40.4882 42.7839L40.0135 34.6598L47.8622 34.2012L47.6008 29.7261L39.7521 30.1847L39.2774 22.0606L34.1138 22.3623Z" fill="white"/>
<path fill-rule="evenodd" clip-rule="evenodd" d="M35.7766 10.5412C43.7449 1.22737 53.4243 1.17816 57.5057 2.46286L57.5287 2.47008L57.5512 2.47839C64.3537 4.98485 68.1779 8.89526 70.0292 13.2275C71.8667 17.5277 71.7055 22.1136 70.7947 25.9131C69.8549 29.8338 67.3607 33.0617 64.8528 35.9003L39.7245 64.3428L39.6264 64.427C39.1562 64.8306 38.4597 64.7896 38.039 64.3546L10.0485 39.1143C7.23979 36.5816 4.4024 33.6622 3.02153 29.8819C1.68224 26.2155 0.990932 21.6817 2.30373 17.1996C3.62642 12.6837 6.94464 8.3554 13.3665 5.07559L13.388 5.0646L13.4101 5.05466C17.2895 3.30413 26.839 2.23165 35.7766 10.5412ZM35.815 11.8658L35.8733 12.8641C35.5233 12.8845 35.1906 12.7518 34.9523 12.5187C26.5172 4.26562 17.5594 5.38918 14.2542 6.868C8.26653 9.93199 5.36883 13.85 4.22309 17.7617C3.06606 21.712 3.65671 25.7918 4.90012 29.1957C6.10068 32.4823 8.60908 35.1233 11.3878 37.629L38.8102 62.357L63.354 34.5761C65.8356 31.7672 68.033 28.8545 68.8498 25.4469C69.695 21.9208 69.8084 17.8007 68.19 14.0134C66.5873 10.2628 63.2314 6.70839 56.8828 4.36357C53.4077 3.28163 44.3476 3.21228 36.885 12.3329C36.6553 12.6137 36.3207 12.8086 35.9435 12.8575L35.815 11.8658ZM38.8936 63.4807L39.4132 62.9045C39.4573 62.9417 39.4982 62.9841 39.535 63.0315L38.9189 63.5103L38.8936 63.4807ZM38.8756 63.5007L38.7454 63.6451L38.9016 63.5237L38.8756 63.5007Z" fill="white"/>
</svg>
