<svg width="72" height="65" viewBox="0 0 72 65" fill="none" xmlns="http://www.w3.org/2000/svg">
<path d="M7.05829 20.8147C7.17308 17.2617 9.38871 10.095 17.3329 9.85191" stroke="#43458C" stroke-width="2"/>
<path d="M32.0213 20.0419L32.496 28.166L24.3719 28.6407L24.75 35.1124L32.8741 34.6377L33.3488 42.7618L40.509 42.3434L40.0343 34.2194L47.883 33.7608L47.5049 27.2891L39.6562 27.7476L39.1815 19.6236L32.0213 20.0419Z" stroke="#43458C" stroke-width="2"/>
<path d="M9.68203 36.9914L37.7093 62.2648C37.7651 62.3367 37.8698 62.3473 37.939 62.2879L37.9847 62.2487L63.0673 33.858C65.5621 31.0342 67.9079 27.9639 68.7862 24.2997C70.5421 16.9742 69.3354 6.88763 56.1694 2.03644C52.3617 0.837935 42.8385 0.830855 35.0749 10.3194C35.0012 10.4096 34.8944 10.4705 34.7789 10.4855C34.7186 10.489 34.6587 10.4658 34.6156 10.4236C25.839 1.83651 16.4105 2.95007 12.7853 4.58589C0.36079 10.9313 0.342019 21.0882 2.92471 28.1585C4.21543 31.692 6.88832 34.4722 9.68203 36.9914Z" stroke="#43458C" stroke-width="2"/>
</svg>
