<svg width="66" height="65" viewBox="0 0 66 65" fill="none" xmlns="http://www.w3.org/2000/svg">
<path d="M6.74356 30.548C7.12199 31.1254 7.89683 31.2867 8.47423 30.9083C9.05162 30.5298 9.21292 29.755 8.83449 29.1776L6.74356 30.548ZM6.42924 3.57373C4.13832 4.8073 1.60928 7.66605 0.991705 12.2062C0.374475 16.7439 1.67918 22.8209 6.74356 30.548L8.83449 29.1776C3.97691 21.766 2.95882 16.293 3.46889 12.5432C3.97862 8.79588 6.02698 6.62972 7.61449 5.77491L6.42924 3.57373Z" fill="#43458C"/>
<path d="M29.4517 29.7742C29.1201 30.3797 29.3422 31.1394 29.9477 31.471C30.5532 31.8025 31.3129 31.5805 31.6445 30.975L29.4517 29.7742ZM30.1036 5.58726C31.6203 6.16424 33.6955 7.96995 34.3141 11.7157C34.9376 15.4901 34.0842 21.3149 29.4517 29.7742L31.6445 30.975C36.4225 22.2499 37.5297 15.8427 36.7807 11.3083C36.027 6.74526 33.397 4.16535 30.9926 3.25063L30.1036 5.58726Z" fill="#43458C"/>
<path d="M24.881 33.7054C20.6228 38.1603 15.8882 36.2769 12.7989 33.6572C11.6571 32.689 9.8554 32.7174 8.9701 33.9247C8.35201 34.7675 8.38511 35.9285 9.12585 36.6659C11.0549 38.5862 14.1208 40.9866 16.7394 40.9866V48.0189C16.7394 49.2193 17.7125 50.1925 18.913 50.1925C20.1134 50.1925 21.0866 49.2193 21.0866 48.0189V40.9866C24.6898 39.9356 27.3198 37.8563 28.835 36.2344C29.6016 35.4139 29.4399 34.1687 28.616 33.4058C27.5544 32.4228 25.8806 32.6595 24.881 33.7054Z" stroke="#43458C" stroke-width="2.5"/>
<path d="M18.9128 50.1929C19.2964 56.2023 24.6071 68.2388 39.8819 61.1889V61.1889C47.0468 57.882 45.8914 47.3113 45.8914 39.4201V31.9088C45.8914 30.1188 47.0677 27.3314 49.7272 25.8994" stroke="#43458C" stroke-width="2.5" stroke-linecap="round"/>
<circle cx="9.18441" cy="3.88338" r="2.45223" stroke="#43458C" stroke-width="2"/>
<circle cx="28.1844" cy="3.88338" r="2.45223" stroke="#43458C" stroke-width="2"/>
<circle cx="58.0202" cy="20.7192" r="5.78804" stroke="#43458C" stroke-width="3"/>
<circle cx="58.0201" cy="20.7191" r="2.44079" stroke="#43458C"/>
</svg>
