<svg width="66" height="65" viewBox="0 0 66 65" fill="none" xmlns="http://www.w3.org/2000/svg">
<path fill-rule="evenodd" clip-rule="evenodd" d="M0.923071 12.5656C1.54065 8.02542 4.06968 5.16668 6.3606 3.93311L7.54585 6.13428C5.95835 6.9891 3.90998 9.15526 3.40026 12.9026C2.89019 16.6524 3.90828 22.1254 8.76586 29.537C9.14428 30.1144 8.98299 30.8892 8.40559 31.2676C7.8282 31.6461 7.05335 31.4848 6.67493 30.9074C1.61054 23.1803 0.305841 17.1032 0.923071 12.5656Z" fill="white"/>
<path fill-rule="evenodd" clip-rule="evenodd" d="M34.2455 12.0749C33.6268 8.32917 31.5517 6.52347 30.035 5.94648L30.9239 3.60986C33.3284 4.52458 35.9584 7.10449 36.7121 11.6675C37.4611 16.2019 36.3539 22.6091 31.5759 31.3342C31.2443 31.9397 30.4846 32.1618 29.8791 31.8302C29.2736 31.4986 29.0515 30.7389 29.3831 30.1334C34.0156 21.6741 34.8689 15.8493 34.2455 12.0749Z" fill="white"/>
<path fill-rule="evenodd" clip-rule="evenodd" d="M27.6979 34.6826C27.2502 34.2681 26.3579 34.2568 25.7158 34.9286C23.3318 37.4228 20.7026 38.2243 18.1902 37.9357C15.7528 37.6557 13.5716 36.3693 11.9216 34.9701C11.2083 34.3653 10.275 34.5248 9.90929 35.0234C9.61823 35.4203 9.68075 35.8826 9.93891 36.1396C10.8608 37.0573 12.0374 38.0717 13.271 38.848C14.5312 39.6411 15.7101 40.0961 16.6705 40.0961H17.9205V48.3784C17.9205 48.8886 18.3341 49.3021 18.8442 49.3021C19.3543 49.3021 19.7678 48.8886 19.7678 48.3784V40.4086L20.6678 40.1461C24.0076 39.172 26.4528 37.2392 27.8528 35.7407C27.976 35.6088 28.0252 35.4523 28.0085 35.2744C27.9908 35.0844 27.8935 34.8637 27.6979 34.6826ZM23.9085 33.2012C25.2658 31.7813 27.7209 31.2967 29.3964 32.8482C30.627 33.9876 31.0082 36.0253 29.6796 37.4474C28.1785 39.0541 25.6734 41.0684 22.2678 42.2579V48.3784C22.2678 50.2693 20.735 51.8021 18.8442 51.8021C16.9534 51.8021 15.4205 50.2693 15.4205 48.3784V42.4639C14.1904 42.2117 12.994 41.6275 11.9394 40.9638C10.5031 40.0599 9.18232 38.914 8.17516 37.9114C6.95185 36.6936 6.94817 34.8338 7.89328 33.545C9.29821 31.6292 11.9682 31.7318 13.5385 33.0634C14.9779 34.284 16.7086 35.2491 18.4754 35.452C20.1672 35.6463 22.0344 35.162 23.9085 33.2012Z" fill="white"/>
<path fill-rule="evenodd" clip-rule="evenodd" d="M50.7592 25.6659C51.0865 26.2738 50.8591 27.0318 50.2512 27.3591C48.0311 28.5546 47.0728 30.8972 47.0728 32.268V39.7792C47.0728 40.6739 47.0888 41.6216 47.1054 42.6018C47.1598 45.8144 47.2201 49.3767 46.7411 52.5683C46.1113 56.7638 44.4927 60.765 40.3372 62.6829C36.374 64.5121 32.9586 65.1487 30.0384 64.8944C27.1041 64.6389 24.7496 63.4901 22.9207 61.8873C19.3147 58.7268 17.8029 53.86 17.5968 50.6316C17.5528 49.9427 18.0757 49.3485 18.7647 49.3045C19.4536 49.2606 20.0478 49.7834 20.0917 50.4724C20.2693 53.2534 21.6046 57.4095 24.5685 60.0072C26.0247 61.2834 27.8857 62.1975 30.2553 62.4038C32.6388 62.6114 35.6154 62.1088 39.2895 60.413C42.2989 59.0241 43.685 56.0865 44.2688 52.1972C44.7138 49.2321 44.6595 45.9725 44.6067 42.8012C44.5897 41.7805 44.5728 40.7689 44.5728 39.7792V32.268C44.5728 30.0586 45.9671 26.8266 49.066 25.158C49.6738 24.8307 50.4319 25.0581 50.7592 25.6659Z" fill="white"/>
<path fill-rule="evenodd" clip-rule="evenodd" d="M9.1158 5.69498C9.91785 5.69498 10.568 5.0448 10.568 4.24276C10.568 3.44071 9.91785 2.79053 9.1158 2.79053C8.31376 2.79053 7.66357 3.44071 7.66357 4.24276C7.66357 5.0448 8.31376 5.69498 9.1158 5.69498ZM9.1158 7.69498C11.0224 7.69498 12.568 6.14937 12.568 4.24276C12.568 2.33614 11.0224 0.790527 9.1158 0.790527C7.20919 0.790527 5.66357 2.33614 5.66357 4.24276C5.66357 6.14937 7.20919 7.69498 9.1158 7.69498Z" fill="white"/>
<path fill-rule="evenodd" clip-rule="evenodd" d="M28.1158 5.69498C28.9178 5.69498 29.568 5.0448 29.568 4.24276C29.568 3.44071 28.9178 2.79053 28.1158 2.79053C27.3138 2.79053 26.6636 3.44071 26.6636 4.24276C26.6636 5.0448 27.3138 5.69498 28.1158 5.69498ZM28.1158 7.69498C30.0224 7.69498 31.568 6.14937 31.568 4.24276C31.568 2.33614 30.0224 0.790527 28.1158 0.790527C26.2092 0.790527 24.6636 2.33614 24.6636 4.24276C24.6636 6.14937 26.2092 7.69498 28.1158 7.69498Z" fill="white"/>
<path fill-rule="evenodd" clip-rule="evenodd" d="M57.9514 25.3666C60.3196 25.3666 62.2394 23.4468 62.2394 21.0786C62.2394 18.7103 60.3196 16.7905 57.9514 16.7905C55.5831 16.7905 53.6633 18.7103 53.6633 21.0786C53.6633 23.4468 55.5831 25.3666 57.9514 25.3666ZM57.9514 28.3666C61.9764 28.3666 65.2394 25.1036 65.2394 21.0786C65.2394 17.0535 61.9764 13.7905 57.9514 13.7905C53.9263 13.7905 50.6633 17.0535 50.6633 21.0786C50.6633 25.1036 53.9263 28.3666 57.9514 28.3666Z" fill="white"/>
<path fill-rule="evenodd" clip-rule="evenodd" d="M57.9513 23.0193C59.0232 23.0193 59.8921 22.1503 59.8921 21.0785C59.8921 20.0066 59.0232 19.1377 57.9513 19.1377C56.8794 19.1377 56.0105 20.0066 56.0105 21.0785C56.0105 22.1503 56.8794 23.0193 57.9513 23.0193ZM57.9513 24.0193C59.5754 24.0193 60.8921 22.7026 60.8921 21.0785C60.8921 19.4543 59.5754 18.1377 57.9513 18.1377C56.3271 18.1377 55.0105 19.4543 55.0105 21.0785C55.0105 22.7026 56.3271 24.0193 57.9513 24.0193Z" fill="white"/>
</svg>
