<svg width="59" height="59" viewBox="0 0 59 59" fill="none" xmlns="http://www.w3.org/2000/svg">
<g opacity="0.6" clip-path="url(#clip0_267_232)">
<path d="M54.0815 4.55074C51.2561 1.67659 47.4104 0 43.3292 0C39.248 0 35.4807 1.59675 32.5768 4.55074L4.95027 32.6536C-0.936061 38.6414 -0.936061 48.4614 4.95027 54.4492C7.77571 57.3234 11.6215 59 15.7026 59C19.7838 59 23.5511 57.4032 26.455 54.4492L40.2683 40.3978L54.0815 26.3464C59.9679 20.3586 59.9679 10.6184 54.0815 4.55074ZM24.5714 52.613C22.2168 55.0081 18.999 56.3654 15.7026 56.3654C12.4063 56.3654 9.18843 55.0081 6.8339 52.613C1.88938 47.5832 1.88938 39.5196 6.8339 34.4898L19.7838 21.3166C19.8623 21.3965 19.8623 21.4763 19.9408 21.5562L37.5213 39.4398L24.5714 52.613ZM52.1979 24.59L39.3265 37.6834L21.7459 19.7997C21.6675 19.7199 21.589 19.7199 21.5105 19.6401L34.4604 6.46685C36.815 4.07172 40.0328 2.71448 43.3292 2.71448C46.704 2.71448 49.8434 4.07172 52.1979 6.46685C57.1424 11.4966 57.1424 19.5602 52.1979 24.59Z" fill="#43458C"/>
<path d="M51.0206 10.0597C48.8231 7.82427 45.9976 6.70654 43.0152 6.70654C40.0328 6.70654 37.2074 7.90411 35.0883 10.0597C34.6174 10.5387 34.6174 11.417 35.0883 11.896C35.5592 12.375 36.4225 12.375 36.8934 11.896C38.5416 10.2194 40.6607 9.34118 43.0152 9.34118C45.2913 9.34118 47.4888 10.2194 49.137 11.896C49.3725 12.1355 49.6864 12.2952 50.0788 12.2952C50.3928 12.2952 50.7067 12.1355 51.0206 11.896C51.4915 11.417 51.4915 10.5387 51.0206 10.0597Z" fill="#43458C"/>
</g>
<defs>
<clipPath id="clip0_267_232">
<rect width="58" height="59" fill="white" transform="translate(0.515869)"/>
</clipPath>
</defs>
</svg>
