<svg width="59" height="60" viewBox="0 0 59 60" fill="none" xmlns="http://www.w3.org/2000/svg">
<g clip-path="url(#clip0_267_209)">
<path d="M54.3475 4.65182C51.5221 1.77766 47.6763 0.101074 43.5952 0.101074C39.514 0.101074 35.7467 1.69783 32.8428 4.65182L5.21626 32.7547C-0.67007 38.7425 -0.67007 48.5625 5.21626 54.5503C8.0417 57.4245 11.8874 59.1011 15.9686 59.1011C20.0498 59.1011 23.8171 57.5043 26.721 54.5503L40.5343 40.4989L54.3475 26.4475C60.2339 20.4597 60.2339 10.7195 54.3475 4.65182ZM24.8374 52.7141C22.4828 55.1092 19.265 56.4664 15.9686 56.4664C12.6723 56.4664 9.45442 55.1092 7.09989 52.7141C2.15537 47.6843 2.15537 39.6207 7.09989 34.5909L20.0498 21.4177C20.1283 21.4976 20.1283 21.5774 20.2068 21.6572L37.7873 39.5409L24.8374 52.7141ZM52.4639 24.6911L39.5924 37.7844L22.0119 19.9008C21.9334 19.821 21.855 19.821 21.7765 19.7411L34.7264 6.56792C37.0809 4.17279 40.2988 2.81555 43.5952 2.81555C46.97 2.81555 50.1094 4.17279 52.4639 6.56792C57.4084 11.5977 57.4084 19.6613 52.4639 24.6911Z" fill="white"/>
<path d="M51.2865 10.1608C49.0889 7.92534 46.2635 6.80762 43.2811 6.80762C40.2987 6.80762 37.4732 8.00518 35.3542 10.1608C34.8832 10.6398 34.8832 11.518 35.3542 11.9971C35.8251 12.4761 36.6884 12.4761 37.1593 11.9971C38.8075 10.3205 40.9266 9.44226 43.2811 9.44226C45.5571 9.44226 47.7547 10.3205 49.4029 11.9971C49.6383 12.2366 49.9523 12.3963 50.3447 12.3963C50.6586 12.3963 50.9726 12.2366 51.2865 11.9971C51.7574 11.518 51.7574 10.6398 51.2865 10.1608Z" fill="white"/>
</g>
<defs>
<clipPath id="clip0_267_209">
<rect width="58" height="59" fill="white" transform="translate(0.781982 0.101074)"/>
</clipPath>
</defs>
</svg>
