<svg width="81" height="81" viewBox="0 0 81 81" fill="none" xmlns="http://www.w3.org/2000/svg">
<mask id="mask0_267_134" style="mask-type:luminance" maskUnits="userSpaceOnUse" x="0" y="0" width="81" height="81">
<path d="M0.0429688 0.704597H80.043V80.7046H0.0429688V0.704597Z" fill="white"/>
</mask>
<g mask="url(#mask0_267_134)">
<path fill-rule="evenodd" clip-rule="evenodd" d="M25.8655 65.7792C25.1633 69.0894 20.6574 69.6106 19.2185 66.5493L18.3318 66.966L19.2185 66.5492C17.1843 62.2212 14.9063 57.4358 12.9234 53.4181C10.9568 49.4336 9.24 46.12 8.3424 44.8012L7.51572 45.3639L8.3424 44.8012C6.41911 41.9755 4.79511 38.8751 3.77129 35.7193C3.60086 35.194 3.03683 34.9063 2.5115 35.0767C1.98617 35.2472 1.69847 35.8112 1.8689 36.3365C2.96289 39.7085 4.68264 42.9788 6.68903 45.9265C7.49003 47.1034 9.13887 50.2692 11.1299 54.3033C13.1046 58.3041 15.3762 63.0763 17.4085 67.4C19.6634 72.1974 26.7222 71.3786 27.8219 66.1942L26.8591 65.9899L27.8219 66.1942L31.4926 48.8888C31.6903 48.2246 32.6369 48.2246 32.8346 48.8889L36.5053 66.1942L37.4835 65.9867L36.5053 66.1942C37.605 71.3786 44.6638 72.1974 46.9187 67.4L46.9187 67.4C47.273 66.6462 47.6345 65.8787 48.0006 65.1043C48.2366 64.605 48.0232 64.0089 47.5238 63.7729C47.0245 63.5369 46.4284 63.7503 46.1924 64.2496C45.8256 65.0255 45.4635 65.7943 45.1087 66.5493C43.6698 69.6106 39.1639 69.0894 38.4618 65.7792L34.7844 48.4424C34.7807 48.425 34.7766 48.4076 34.7719 48.3904C34.0553 45.7241 30.2719 45.7241 29.5553 48.3904C29.5521 48.4022 29.5492 48.4141 29.5464 48.4261C29.5452 48.4315 29.544 48.437 29.5428 48.4424L25.8655 65.7792Z" fill="white"/>
<path fill-rule="evenodd" clip-rule="evenodd" d="M62.5101 31.9355C63.0594 31.9925 63.551 31.5934 63.608 31.0441C63.8863 28.3623 63.6724 25.6738 62.7874 23.1016L62.7873 23.1015C60.8406 17.4448 56.8304 13.2006 51.7162 11.5606C44.5555 9.26432 38.3949 12.8851 34.6434 15.5266L35.2191 16.3443L34.6434 15.5266C33.1567 16.5734 31.1706 16.5733 29.6839 15.5266C25.9325 12.8851 19.772 9.26432 12.6112 11.5606C7.99003 13.0425 4.26715 16.6535 2.15797 21.51C1.93797 22.0166 2.17028 22.6056 2.67685 22.8256C3.18343 23.0456 3.77243 22.8133 3.99244 22.3067C5.90513 17.9026 9.22319 14.7473 13.222 13.4651L13.222 13.4651C19.3991 11.4842 24.8307 14.5553 28.5324 17.1619L28.5325 17.162C30.7098 18.6949 33.6175 18.6949 35.7948 17.162L35.7948 17.1619C39.4967 14.5553 44.9284 11.4842 51.1055 13.4651C55.5278 14.8832 59.1214 18.5953 60.8962 23.7523C61.6721 26.0072 61.8719 28.3975 61.6187 30.8376C61.5617 31.3869 61.9608 31.8785 62.5101 31.9355Z" fill="white"/>
<path fill-rule="evenodd" clip-rule="evenodd" d="M28.3099 16.8618C30.6273 21.4654 36.2378 23.3189 40.8415 21.0015C41.3348 20.7531 41.5334 20.1519 41.2851 19.6586C41.0367 19.1653 40.4355 18.9667 39.9422 19.215C36.3252 21.0358 31.9171 19.5795 30.0963 15.9625C29.848 15.4692 29.2468 15.2706 28.7535 15.5189C28.2602 15.7673 28.0616 16.3685 28.3099 16.8618Z" fill="white"/>
<path fill-rule="evenodd" clip-rule="evenodd" d="M40.2932 50.2638C40.2932 61.1599 49.0581 70.0063 59.8868 70.0063C70.7155 70.0063 79.4804 61.1599 79.4804 50.2638C79.4804 39.368 70.7155 30.5215 59.8868 30.5215C49.0581 30.5215 40.2932 39.368 40.2932 50.2638ZM59.8868 68.0063C50.1777 68.0063 42.2932 60.0703 42.2932 50.2638C42.2932 40.4575 50.1777 32.5215 59.8868 32.5215C69.5959 32.5215 77.4804 40.4575 77.4804 50.2638C77.4804 60.0703 69.5959 68.0063 59.8868 68.0063Z" fill="white"/>
<path fill-rule="evenodd" clip-rule="evenodd" d="M58.0152 58.7036C57.529 58.7036 57.1213 58.3042 57.1213 57.7944V54.0608C57.1213 53.5085 56.6735 53.0608 56.1213 53.0608H52.4197C51.9335 53.0608 51.5256 52.6613 51.5256 52.1516V48.3756C51.5256 47.866 51.9335 47.4664 52.4197 47.4664H56.1213C56.6735 47.4664 57.1213 47.0187 57.1213 46.4664V42.7328C57.1213 42.2231 57.5291 41.8236 58.0152 41.8236H61.7584C62.2447 41.8236 62.6525 42.2232 62.6525 42.7328V46.4664C62.6525 47.0187 63.1002 47.4664 63.6525 47.4664H67.3541C67.8402 47.4664 68.2481 47.866 68.2481 48.3756V52.1516C68.2481 52.6613 67.8403 53.0608 67.3541 53.0608H63.6525C63.1002 53.0608 62.6525 53.5085 62.6525 54.0608V57.7944C62.6525 58.3041 62.2448 58.7036 61.7584 58.7036H58.0152ZM55.1213 57.7944C55.1213 59.3936 56.4094 60.7036 58.0152 60.7036H61.7584C63.3643 60.7036 64.6525 59.3937 64.6525 57.7944V55.0608H67.3541C68.9597 55.0608 70.2481 53.7509 70.2481 52.1516V48.3756C70.2481 46.7765 68.9598 45.4664 67.3541 45.4664H64.6525V42.7328C64.6525 41.1337 63.3644 39.8236 61.7584 39.8236H58.0152C56.4094 39.8236 55.1213 41.1338 55.1213 42.7328V45.4664H52.4197C50.814 45.4664 49.5256 46.7765 49.5256 48.3756V52.1516C49.5256 53.7509 50.8141 55.0608 52.4197 55.0608H55.1213V57.7944Z" fill="white"/>
</g>
</svg>
