<svg width="81" height="81" viewBox="0 0 81 81" fill="none" xmlns="http://www.w3.org/2000/svg">
<g opacity="0.6">
<mask id="mask0_267_1453" style="mask-type:luminance" maskUnits="userSpaceOnUse" x="0" y="0" width="81" height="81">
<path d="M0.232666 0.0503006H80.2327V80.0503H0.232666V0.0503006Z" fill="white"/>
</mask>
<g mask="url(#mask0_267_1453)">
<path d="M3.00977 35.3734C4.06867 38.6373 5.74055 41.8227 7.70539 44.7094C9.40398 47.205 14.4366 57.6684 18.5032 66.3202C20.3501 70.2495 26.1324 69.5795 27.0334 65.3322L30.7107 47.9955C31.1619 46.3164 33.5446 46.3164 33.9959 47.9955L37.6732 65.3322C38.5741 69.5795 44.3565 70.2495 46.2034 66.3202C46.5579 65.5658 46.9198 64.7977 47.2862 64.0225" stroke="#43458C" stroke-width="2" stroke-miterlimit="10" stroke-linecap="round" stroke-linejoin="round"/>
<path d="M62.803 30.2861C63.0688 27.7252 62.8619 25.1858 62.0315 22.7722C60.1707 17.3654 56.3688 13.3872 51.6005 11.8582C44.9316 9.71957 39.1355 13.0655 35.4088 15.6896C33.5768 16.9794 31.1299 16.9794 29.2979 15.6896C25.5713 13.0655 19.7752 9.71957 13.1063 11.8582C8.7963 13.2402 5.27583 16.6233 3.26489 21.2536" stroke="#43458C" stroke-width="2" stroke-miterlimit="10" stroke-linecap="round" stroke-linejoin="round"/>
<path d="M40.5816 19.4542C36.4713 21.5232 31.4619 19.8684 29.3928 15.7581" stroke="#43458C" stroke-width="2" stroke-miterlimit="10" stroke-linecap="round" stroke-linejoin="round"/>
<path d="M78.6701 49.6091C78.6701 59.9603 70.3454 68.3516 60.0765 68.3516C49.8076 68.3516 41.4829 59.9603 41.4829 49.6091C41.4829 39.258 49.8076 30.8667 60.0765 30.8667C70.3454 30.8667 78.6701 39.258 78.6701 49.6091Z" stroke="#43458C" stroke-width="2" stroke-miterlimit="10" stroke-linecap="round" stroke-linejoin="round"/>
<path d="M67.5438 45.8121H63.8422V42.0785C63.8422 41.0242 62.9942 40.1693 61.9481 40.1693H58.2049C57.1589 40.1693 56.311 41.0242 56.311 42.0785V45.8121H52.6094C51.5635 45.8121 50.7153 46.667 50.7153 47.7213V51.4973C50.7153 52.5518 51.5635 53.4065 52.6094 53.4065H56.311V57.1401C56.311 58.1946 57.1589 59.0493 58.2049 59.0493H61.9481C62.9942 59.0493 63.8422 58.1946 63.8422 57.1401V53.4065H67.5438C68.5897 53.4065 69.4378 52.5518 69.4378 51.4973V47.7213C69.4378 46.667 68.5897 45.8121 67.5438 45.8121Z" stroke="#43458C" stroke-width="2" stroke-miterlimit="10" stroke-linecap="round" stroke-linejoin="round"/>
</g>
</g>
</svg>
